# xmcd CD database file
#
# Track frame offsets:
#	150
#	14395
#	28162
#	42787
#	57472
#	71725
#	89830
#	103987
#	118950
#	131157
#	146140
#
# Disc length: 2127 seconds
#
# Revision: 0
# Processed by: cddbd v1.4PL0 Copyright (c) Steve Scherf et al.
# Submitted via: Feurio! 1.64 - http://www.feurio.com
#
DISCID=b1084d0b
DTITLE=Don Reed and Steve Piticco - Pickin' Partners-1991
DYEAR=1991
DGENRE=Country
TTITLE0=Columbus Stockade Blues
TTITLE1=Chew Tobacco Rag
TTITLE2=I Don't Think Hank Done It This Way
TTITLE3=Texas
TTITLE4=You Don't Have Very Far To Go
TTITLE5=One Way Rider
TTITLE6=St. Anne's Reel-Snowflake Breakdown
TTITLE7=The Mockingbird
TTITLE8=Big John MacNeil-Agnus Campbell
TTITLE9=Faded Love-Maidens Prayer
TTITLE10=Orange Blossum Special
EXTD=Koch International-1991
EXTT0=
EXTT1=
EXTT2=
EXTT3=
EXTT4=
EXTT5=
EXTT6=
EXTT7=
EXTT8=
EXTT9=
EXTT10=
PLAYORDER=
